<svg width="133" height="23" viewBox="0 0 133 23" fill="none" xmlns="http://www.w3.org/2000/svg">
<path d="M25.7969 18V3.78125H29.9961C31.5195 3.78125 32.6751 4.09701 33.4629 4.72852C34.2507 5.35352 34.6445 6.27799 34.6445 7.50195C34.6445 8.23763 34.4427 8.87891 34.0391 9.42578C33.6419 9.96615 33.0951 10.3535 32.3984 10.5879C33.2253 10.7702 33.8893 11.1771 34.3906 11.8086C34.8984 12.4401 35.1523 13.1693 35.1523 13.9961C35.1523 15.2526 34.7454 16.2357 33.9316 16.9453C33.1243 17.6484 31.998 18 30.5527 18H25.7969ZM26.998 11.1641V16.9844H30.6016C31.6302 16.9844 32.444 16.724 33.043 16.2031C33.6484 15.6758 33.9512 14.9466 33.9512 14.0156C33.9512 13.1367 33.6615 12.4434 33.082 11.9355C32.5091 11.4212 31.7148 11.1641 30.6992 11.1641H26.998ZM26.998 10.1582H30.2793C31.2819 10.1387 32.0566 9.9043 32.6035 9.45508C33.1569 8.99935 33.4336 8.33854 33.4336 7.47266C33.4336 6.5612 33.1471 5.89062 32.5742 5.46094C32.0078 5.02474 31.1484 4.80664 29.9961 4.80664H26.998V10.1582ZM39.5273 18H38.3262V3.78125H39.5273V18ZM52.75 4.80664H47.877V18H46.6758V4.80664H41.8125V3.78125H52.75V4.80664ZM65.5918 18H64.3809V11.1836H56.2559V18H55.0547V3.78125H56.2559V10.168H64.3809V3.78125H65.5918V18ZM77.0664 14.0156H70.6113L69.1465 18H67.8867L73.2676 3.78125H74.4102L79.791 18H78.541L77.0664 14.0156ZM70.9824 12.9902H76.6855L73.834 5.24609L70.9824 12.9902ZM83.1016 16.9844H90.123V18H81.8906V3.78125H83.1016V16.9844ZM93.6484 16.9844H100.67V18H92.4375V3.78125H93.6484V16.9844ZM112.848 11.6621C112.848 12.9707 112.62 14.1198 112.164 15.1094C111.715 16.099 111.07 16.8607 110.23 17.3945C109.391 17.9284 108.421 18.1953 107.32 18.1953C105.66 18.1953 104.319 17.6029 103.297 16.418C102.275 15.2266 101.764 13.6217 101.764 11.6035V10.1387C101.764 8.8431 101.992 7.69727 102.447 6.70117C102.91 5.69857 103.561 4.93034 104.4 4.39648C105.24 3.85612 106.207 3.58594 107.301 3.58594C108.395 3.58594 109.358 3.84961 110.191 4.37695C111.031 4.9043 111.679 5.64974 112.135 6.61328C112.59 7.57682 112.828 8.69336 112.848 9.96289V11.6621ZM111.646 10.1191C111.646 8.4069 111.259 7.06576 110.484 6.0957C109.71 5.12565 108.648 4.64062 107.301 4.64062C105.979 4.64062 104.924 5.12891 104.137 6.10547C103.355 7.07552 102.965 8.43294 102.965 10.1777V11.6621C102.965 13.3483 103.355 14.6862 104.137 15.6758C104.918 16.6589 105.979 17.1504 107.32 17.1504C108.681 17.1504 109.742 16.6654 110.504 15.6953C111.266 14.7188 111.646 13.3613 111.646 11.623V10.1191ZM118.502 14.1621L118.941 16.3691L119.479 14.2598L122.564 3.78125H123.648L126.695 14.2598L127.223 16.3887L127.691 14.1621L130.26 3.78125H131.49L127.848 18H126.695L123.473 6.87695L123.111 5.4707L122.76 6.87695L119.459 18H118.307L114.674 3.78125H115.904L118.502 14.1621Z" fill="black"/>
<g clip-path="url(#clip0)">
<path d="M8.93409 19.1811L14.2448 21L18.8943 16.3507L13.5469 14.5683L8.93409 19.1811ZM11.3255 18.8972C11.0442 19.1785 10.5858 19.3002 10.3013 19.169C10.0172 19.0378 10.0145 18.7036 10.296 18.4223C10.5773 18.141 11.0357 18.0193 11.3201 18.1505C11.6045 18.2817 11.6067 18.6159 11.3255 18.8972ZM13.0404 19.4979C12.7591 19.7792 12.3007 19.901 12.0163 19.7698C11.7321 19.6385 11.7295 19.3043 12.0109 19.0231C12.2925 18.7418 12.7506 18.62 13.0351 18.7512C13.3193 18.8824 13.3217 19.2166 13.0404 19.4979ZM16.4981 16.8081C16.7794 16.5268 17.2378 16.405 17.5222 16.5363C17.8064 16.6675 17.8091 17.0017 17.5278 17.283C17.2466 17.5642 16.7882 17.686 16.5037 17.5548C16.2192 17.4236 16.2169 17.0894 16.4981 16.8081ZM14.7882 16.246C15.0695 15.9647 15.5279 15.843 15.8124 15.9742C16.0965 16.1054 16.0992 16.4396 15.8177 16.7209C15.5364 17.0022 15.078 17.1239 14.7936 16.9927C14.5094 16.8615 14.507 16.5273 14.7882 16.246ZM14.745 19.3133C15.0292 19.4445 15.0318 19.7787 14.7503 20.06C14.469 20.3413 14.0107 20.463 13.7262 20.3318C13.4418 20.2006 13.4394 19.8664 13.7206 19.5851C14.0022 19.3041 14.4605 19.1823 14.745 19.3133ZM14.0974 15.3732C14.3815 15.5044 14.3842 15.8386 14.1027 16.1199C13.8214 16.4012 13.363 16.523 13.0786 16.3918C12.7944 16.2606 12.7918 15.9264 13.0732 15.6451C13.3545 15.3638 13.813 15.2423 14.0974 15.3732Z" fill="black"/>
<path d="M18.9806 15.7081L17.2248 10.4404L11.9571 8.68437L13.7129 13.9518L18.9806 15.7081ZM15.0691 11.5776C15.2658 11.3809 15.6611 11.4571 15.952 11.748C16.243 12.039 16.3193 12.4343 16.1224 12.631C15.9257 12.8277 15.5304 12.7516 15.2395 12.4606C14.9485 12.1697 14.8721 11.7743 15.0691 11.5776Z" fill="black"/>
<path d="M6.37967 0.999985L1.41305 3.48315L6.37962 5.96632L11.346 3.48315L6.37967 0.999985ZM6.37967 3.98698C5.96839 3.98698 5.63467 3.76128 5.63467 3.48315C5.63467 3.20479 5.96816 2.97933 6.37967 2.97933C6.79118 2.97933 7.12467 3.20502 7.12467 3.48315C7.12439 3.76152 6.79094 3.98698 6.37967 3.98698Z" fill="black"/>
<path d="M7.65628 10.5209C7.89359 10.4335 8.09195 10.5719 8.16058 10.8372L11.135 7.8628L11.7394 8.06433V3.99837L6.69785 6.51925V12.3L7.20749 11.7903C7.15552 11.6983 7.12437 11.5789 7.12437 11.4375C7.12437 11.0395 7.36267 10.6292 7.65628 10.5209ZM10.9004 5.0998C11.1943 4.99153 11.4323 5.22619 11.4323 5.62392C11.4323 6.02165 11.1943 6.43198 10.9004 6.54025C10.6066 6.64852 10.3685 6.41386 10.3685 6.01613C10.3685 5.61835 10.6066 5.20807 10.9004 5.0998ZM9.38477 7.70209C9.67862 7.59382 9.91663 7.82849 9.91663 8.22621C9.91663 8.62394 9.67862 9.03427 9.38477 9.14254C9.09092 9.25081 8.85291 9.01615 8.85291 8.61842C8.85291 8.22069 9.09116 7.81036 9.38477 7.70209ZM7.12437 7.61582C7.12437 7.21809 7.36238 6.80776 7.65623 6.69949C7.95008 6.59122 8.18809 6.82588 8.18809 7.22361C8.18809 7.62139 7.95008 8.03167 7.65623 8.13994C7.36243 8.24821 7.12437 8.01359 7.12437 7.61582Z" fill="black"/>
<path d="M1.01943 10.5734L5.98987 13.0077L6.06114 12.9365V6.51925L1.01943 3.99837V10.5734ZM5.09044 10.5209C5.38429 10.6292 5.62231 11.0395 5.62231 11.4373C5.62231 11.835 5.38429 12.0696 5.09044 11.9614C4.7966 11.8531 4.55858 11.4428 4.55858 11.045C4.55858 10.6473 4.79688 10.4127 5.09044 10.5209ZM3.54031 7.62162C3.83416 7.72989 4.07217 8.14017 4.07217 8.53795C4.07217 8.93568 3.83416 9.17034 3.54031 9.06207C3.24646 8.9538 3.00845 8.54347 3.00845 8.14574C3.0084 7.74802 3.2467 7.51335 3.54031 7.62162ZM1.94492 5.0998C2.23876 5.20807 2.47678 5.61835 2.47678 6.01613C2.47678 6.41386 2.23876 6.64852 1.94492 6.54025C1.65107 6.43198 1.41305 6.0217 1.41305 5.62392C1.41305 5.22619 1.65107 4.99153 1.94492 5.0998Z" fill="black"/>
<path d="M11.3143 8.77042L6.66479 13.4195L8.4839 18.7307L13.0967 14.1174L11.3143 8.77042ZM9.32873 16.9792C9.04743 17.2605 8.713 17.258 8.58203 16.9736C8.45105 16.6892 8.57259 16.2308 8.85388 15.9495C9.13517 15.6682 9.46961 15.6706 9.60058 15.9548C9.73155 16.239 9.61002 16.6979 9.32873 16.9792ZM10.8801 11.467C10.5988 11.7482 10.2644 11.7458 10.1334 11.4616C10.0022 11.1775 10.1239 10.7188 10.4052 10.4375C10.6865 10.1562 11.021 10.1587 11.1519 10.4428C11.2832 10.7272 11.1614 11.1857 10.8801 11.467Z" fill="black"/>
</g>
<defs>
<clipPath id="clip0">
<rect y="1" width="20" height="20" fill="white"/>
</clipPath>
</defs>
</svg>
