<svg width="14" height="14" viewBox="0 0 14 14" fill="none" xmlns="http://www.w3.org/2000/svg">
<path d="M6.99998 11.5862C3.53402 11.5862 0.724121 10.8712 0.724121 10.1379V11.8266C0.726052 12.5595 3.53498 13.2759 6.99998 13.2759C10.465 13.2759 13.2739 12.5595 13.2758 11.8266V10.1379C13.2758 10.8712 10.4659 11.5862 6.99998 11.5862Z" fill="#E4AF18"/>
<path d="M6.27586 8.931C2.8099 8.931 0 8.21604 0 7.48273V9.17142C0.00193103 9.90424 2.81086 10.6207 6.27586 10.6207C9.74086 10.6207 12.5498 9.90424 12.5517 9.17142V7.48273C12.5517 8.21604 9.74183 8.931 6.27586 8.931Z" fill="#F4BF1A"/>
<path d="M7.72417 6.27585C4.2582 6.27585 1.4483 5.56089 1.4483 4.82758V6.51627C1.45023 7.24909 4.25917 7.96551 7.72417 7.96551C11.1892 7.96551 13.9981 7.24909 14 6.51627V4.82758C14 5.56089 11.1901 6.27585 7.72417 6.27585Z" fill="#E4AF18"/>
<path d="M12.5517 1.9624C12.5517 2.69547 9.74183 3.37929 6.27586 3.37929C2.8099 3.37929 0 2.69547 0 1.9624C0 1.22909 2.8099 0.724121 6.27586 0.724121C9.74183 0.724121 12.5517 1.22909 12.5517 1.9624Z" fill="#FFD949"/>
<path d="M6.27586 3.37931C2.8099 3.37931 0 2.66434 0 1.93103V3.61972C0.00193103 4.35255 2.81086 5.06896 6.27586 5.06896C9.74086 5.06896 12.5498 4.35255 12.5517 3.61972V1.93103C12.5517 2.66434 9.74183 3.37931 6.27586 3.37931Z" fill="#F4BF1A"/>
<path d="M0.965515 2.67303V4.36148C1.11227 4.41555 1.27303 4.46769 1.44827 4.51741V2.82872C1.27303 2.779 1.11227 2.72686 0.965515 2.67303Z" fill="#DCA815"/>
<path d="M11.1035 2.82872V4.51741C11.2787 4.46769 11.4395 4.41555 11.5862 4.36148V2.67303C11.4395 2.7271 11.2787 2.779 11.1035 2.82872Z" fill="#DCA815"/>
<path d="M2.17242 3.00397V4.6929C2.32691 4.725 2.48791 4.75542 2.65518 4.78414V3.09521C2.48791 3.06648 2.32691 3.03607 2.17242 3.00397Z" fill="#DCA815"/>
<path d="M9.89655 3.09521V4.78438C10.0638 4.75542 10.2248 4.725 10.3793 4.6929V3.00397C10.2248 3.03607 10.0638 3.06648 9.89655 3.09521Z" fill="#DCA815"/>
<path d="M3.37933 3.20288V4.89205C3.53671 4.91233 3.69723 4.93116 3.86209 4.94805V3.25888C3.69723 3.24198 3.53671 3.22292 3.37933 3.20288Z" fill="#DCA815"/>
<path d="M8.68964 3.25912V4.94829C8.8545 4.93116 9.01502 4.91233 9.17239 4.89229V3.20288C9.01502 3.2234 8.8545 3.24223 8.68964 3.25912Z" fill="#DCA815"/>
<path d="M4.58618 3.32117V5.01058C4.74477 5.02168 4.90553 5.03158 5.06894 5.03955V3.34989C4.90553 3.34193 4.74477 3.33227 4.58618 3.32117Z" fill="#DCA815"/>
<path d="M7.48273 3.34989V5.03955C7.64614 5.03158 7.8069 5.02168 7.96549 5.01058V3.32117C7.8069 3.33227 7.64614 3.34193 7.48273 3.34989Z" fill="#DCA815"/>
<path d="M6.27586 3.37926C6.195 3.37926 6.11462 3.37853 6.03448 3.37781V5.06746C6.11462 5.06819 6.195 5.06891 6.27586 5.06891C6.35673 5.06891 6.43711 5.06819 6.51724 5.06746V3.37781C6.43711 3.37853 6.35673 3.37926 6.27586 3.37926Z" fill="#DCA815"/>
<path d="M2.41382 5.56958V7.25803C2.56058 7.3121 2.72134 7.36424 2.89658 7.41396V5.72527C2.72134 5.67555 2.56058 5.62341 2.41382 5.56958Z" fill="#C49214"/>
<path d="M12.5517 5.72527V7.41396C12.7269 7.36424 12.8877 7.3121 13.0345 7.25803V5.56958C12.8877 5.62365 12.7269 5.67555 12.5517 5.72527Z" fill="#C49214"/>
<path d="M3.62067 5.90051V7.58944C3.77515 7.62155 3.93615 7.65196 4.10342 7.68069V5.99175C3.93615 5.96303 3.77515 5.93262 3.62067 5.90051Z" fill="#C49214"/>
<path d="M11.3448 5.99175V7.68093C11.5121 7.65196 11.6731 7.62155 11.8276 7.58944V5.90051C11.6731 5.93262 11.5121 5.96303 11.3448 5.99175Z" fill="#C49214"/>
<path d="M4.82758 6.09961V7.78878C4.98495 7.80906 5.14547 7.82789 5.31033 7.84478V6.15561C5.14547 6.13847 4.98495 6.11964 4.82758 6.09961Z" fill="#C49214"/>
<path d="M10.1379 6.15537V7.84478C10.3028 7.82764 10.4633 7.80882 10.6207 7.78878V6.09961C10.4633 6.11989 10.3028 6.13871 10.1379 6.15537Z" fill="#C49214"/>
<path d="M6.03448 6.21771V7.90712C6.19307 7.91823 6.35383 7.92812 6.51724 7.93609V6.24644C6.35383 6.23847 6.19307 6.22882 6.03448 6.21771Z" fill="#C49214"/>
<path d="M8.93103 6.24644V7.93609C9.09444 7.92812 9.2552 7.91823 9.41379 7.90712V6.21771C9.2552 6.22882 9.09444 6.23847 8.93103 6.24644Z" fill="#C49214"/>
<path d="M7.72411 6.27586C7.64324 6.27586 7.56287 6.27514 7.48273 6.27441V7.96407C7.56287 7.96479 7.64324 7.96552 7.72411 7.96552C7.80497 7.96552 7.88535 7.96479 7.96549 7.96407V6.27441C7.88535 6.27514 7.80497 6.27586 7.72411 6.27586Z" fill="#C49214"/>
<path d="M0.965515 8.22473V9.91318C1.11227 9.96725 1.27303 10.0191 1.44827 10.0691V8.38042C1.27303 8.3307 1.11227 8.27856 0.965515 8.22473Z" fill="#DCA815"/>
<path d="M11.1035 8.38042V10.0691C11.2787 10.0194 11.4395 9.96725 11.5862 9.91318V8.22473C11.4395 8.2788 11.2787 8.3307 11.1035 8.38042Z" fill="#DCA815"/>
<path d="M2.17242 8.55566V10.2446C2.32691 10.2767 2.48791 10.3071 2.65518 10.3358V8.64691C2.48791 8.61818 2.32691 8.58777 2.17242 8.55566Z" fill="#DCA815"/>
<path d="M9.89655 8.64691V10.3361C10.0638 10.3071 10.2248 10.2767 10.3793 10.2446V8.55566C10.2248 8.58777 10.0638 8.61818 9.89655 8.64691Z" fill="#DCA815"/>
<path d="M3.37933 8.75482V10.444C3.53671 10.4643 3.69723 10.4831 3.86209 10.5V8.81082C3.69723 8.79368 3.53671 8.77486 3.37933 8.75482Z" fill="#DCA815"/>
<path d="M8.68964 8.81058V10.5C8.8545 10.4829 9.01502 10.464 9.17239 10.444V8.75482C9.01502 8.7751 8.8545 8.79392 8.68964 8.81058Z" fill="#DCA815"/>
<path d="M4.58618 8.87286V10.5623C4.74477 10.5734 4.90553 10.5833 5.06894 10.5912V8.90159C4.90553 8.89362 4.74477 8.88397 4.58618 8.87286Z" fill="#DCA815"/>
<path d="M7.48273 8.90159V10.5912C7.64614 10.5833 7.8069 10.5734 7.96549 10.5623V8.87286C7.8069 8.88397 7.64614 8.89362 7.48273 8.90159Z" fill="#DCA815"/>
<path d="M6.27586 8.93101C6.195 8.93101 6.11462 8.93029 6.03448 8.92957V10.6192C6.11462 10.6199 6.195 10.6207 6.27586 10.6207C6.35673 10.6207 6.43711 10.6199 6.51724 10.6192V8.92957C6.43711 8.93029 6.35673 8.93101 6.27586 8.93101Z" fill="#DCA815"/>
<path d="M1.68964 10.8799V12.5684C1.83639 12.6225 1.99715 12.6744 2.17239 12.7243V11.0356C1.99715 10.9859 1.83639 10.9338 1.68964 10.8799Z" fill="#C49214"/>
<path d="M11.8276 11.0356V12.7243C12.0028 12.6746 12.1636 12.6225 12.3103 12.5684V10.8799C12.1636 10.934 12.0028 10.9859 11.8276 11.0356Z" fill="#C49214"/>
<path d="M2.89655 11.2108V12.8997C3.05103 12.9319 3.21203 12.9623 3.3793 12.991V11.3021C3.21203 11.2733 3.05103 11.2429 2.89655 11.2108Z" fill="#C49214"/>
<path d="M10.6207 11.3021V12.9912C10.7879 12.9623 10.9489 12.9319 11.1034 12.8997V11.2108C10.9489 11.2429 10.7879 11.2733 10.6207 11.3021Z" fill="#C49214"/>
<path d="M4.10345 11.41V13.0991C4.26083 13.1194 4.42135 13.1382 4.58621 13.1551V11.466C4.42135 11.4488 4.26083 11.43 4.10345 11.41Z" fill="#C49214"/>
<path d="M9.41382 11.4657V13.1551C9.57868 13.138 9.7392 13.1192 9.89658 13.0991V11.41C9.7392 11.4302 9.57868 11.4491 9.41382 11.4657Z" fill="#C49214"/>
<path d="M5.31036 11.528V13.2174C5.46895 13.2285 5.62971 13.2384 5.79312 13.2464V11.5567C5.62971 11.5488 5.46895 11.5391 5.31036 11.528Z" fill="#C49214"/>
<path d="M8.20691 11.5567V13.2464C8.37032 13.2384 8.53108 13.2285 8.68967 13.2174V11.528C8.53108 11.5391 8.37032 11.5488 8.20691 11.5567Z" fill="#C49214"/>
<path d="M6.99999 11.5862C6.91912 11.5862 6.83874 11.5854 6.75861 11.5847V13.2744C6.83874 13.2751 6.91912 13.2758 6.99999 13.2758C7.08085 13.2758 7.16123 13.2751 7.24137 13.2744V11.5847C7.16123 11.5854 7.08085 11.5862 6.99999 11.5862Z" fill="#C49214"/>
<path d="M12.3615 9.50354C11.676 10.1065 9.21174 10.6206 6.27585 10.6206C3.98033 10.6206 1.97374 10.3061 0.879569 9.88082C0.778914 9.97206 0.724121 10.0686 0.724121 10.1693C0.724121 10.9026 3.53402 11.5862 6.99998 11.5862C10.4662 11.5862 13.2758 10.9026 13.2758 10.1693C13.2758 9.91654 12.9415 9.69061 12.3615 9.50354Z" fill="#FCC62D"/>
<path d="M7.72414 7.96551C4.53479 7.96551 1.90303 7.35845 1.50283 6.69031C0.566517 6.90248 0 7.18514 0 7.51414C0 8.2472 2.8099 8.93103 6.27586 8.93103C9.74183 8.93103 12.5517 8.2472 12.5517 7.51414C12.5517 7.48179 12.5445 7.45017 12.5336 7.41879C11.3825 7.74272 9.65566 7.96551 7.72414 7.96551Z" fill="#FFD949"/>
<path d="M12.3087 3.99457C11.5578 4.57871 9.14203 5.06895 6.27589 5.06895C4.42499 5.06895 2.76165 4.86426 1.61292 4.56205C1.50648 4.65619 1.4483 4.75515 1.4483 4.85895C1.4483 5.59226 4.2582 6.27584 7.72417 6.27584C11.1901 6.27584 14 5.59226 14 4.85895C14 4.50846 13.3572 4.21036 12.3087 3.99457Z" fill="#FCC62D"/>
</svg>
