<svg width="20" height="20" viewBox="0 0 20 20" fill="none" xmlns="http://www.w3.org/2000/svg">
<g clip-path="url(#clip0)">
<path d="M19.4528 8.8152C19.388 8.4089 19.0061 8.13211 18.5998 8.19693C18.1935 8.26175 17.9167 8.64369 17.9815 9.04999C17.9822 9.05445 17.983 9.05885 17.9837 9.06326C18.7424 13.5292 15.7371 17.7645 11.2711 18.5231C6.80522 19.2818 2.56991 16.2764 1.81127 11.8105C1.05263 7.34462 4.058 3.10931 8.52387 2.35066C11.2703 1.88413 14.0658 2.84347 15.947 4.89814L12.6468 5.9977C12.2564 6.1276 12.0453 6.54935 12.1751 6.93976C12.1752 6.93985 12.1752 6.93998 12.1753 6.94006C12.3052 7.33047 12.7269 7.54161 13.1173 7.41175C13.1175 7.41171 13.1175 7.41166 13.1176 7.41166L17.5874 5.92174C17.8918 5.82039 18.0971 5.53557 18.097 5.21478V0.744981C18.097 0.333533 17.7635 0 17.352 0C16.9406 0 16.607 0.333533 16.607 0.744981V3.46632C12.7705 -0.182677 6.7023 -0.0306424 3.0533 3.80588C-0.595701 7.6424 -0.44371 13.7106 3.39285 17.3597C7.22942 21.0087 13.2976 20.8567 16.9466 17.0201C19.0274 14.8324 19.956 11.7922 19.4528 8.8152Z" fill="black"/>
</g>
<defs>
<clipPath id="clip0">
<rect width="20" height="20" fill="white"/>
</clipPath>
</defs>
</svg>
