<svg width="12" height="12" viewBox="0 0 12 12" fill="none" xmlns="http://www.w3.org/2000/svg">
<g clip-path="url(#clip0)">
<path d="M11.6717 5.28912C11.6328 5.04534 11.4037 4.87927 11.1599 4.91816C10.9161 4.95705 10.75 5.18622 10.7889 5.43C10.7894 5.43267 10.7898 5.43531 10.7903 5.43796C11.2455 8.11751 9.44226 10.6587 6.76271 11.1139C4.08316 11.5691 1.54197 9.76587 1.08679 7.08632C0.6316 4.40677 2.43482 1.86558 5.11435 1.4104C6.76221 1.13048 8.43951 1.70608 9.56823 2.93888L7.58812 3.59862C7.35387 3.67656 7.22719 3.92961 7.30511 4.16385C7.30513 4.16391 7.30516 4.16399 7.30519 4.16404C7.38313 4.39828 7.63618 4.52497 7.87042 4.44705C7.8705 4.44702 7.87055 4.447 7.87061 4.447L10.5525 3.55305C10.7351 3.49223 10.8583 3.32134 10.8582 3.12887V0.446989C10.8582 0.20012 10.6581 0 10.4112 0C10.1644 0 9.96425 0.20012 9.96425 0.446989V2.07979C7.66234 -0.109606 4.0214 -0.0183854 1.832 2.28353C-0.357396 4.58544 -0.266202 8.22638 2.03574 10.4158C4.33768 12.6052 7.97859 12.514 10.168 10.2121C11.4165 8.89942 11.9736 7.07534 11.6717 5.28912Z" fill="white"/>
</g>
<defs>
<clipPath id="clip0">
<rect width="12" height="12" fill="white"/>
</clipPath>
</defs>
</svg>
