<svg width="16" height="17" viewBox="0 0 16 17" fill="none" xmlns="http://www.w3.org/2000/svg">
<g clip-path="url(#clip0)">
<path d="M9.0747 8.7859C8.92907 8.62152 8.7489 8.49998 8.54748 8.4289L8.51562 8.26139C8.4906 8.12973 8.52783 7.9947 8.61535 7.89602C9.07238 8.01931 9.56848 7.87254 9.89038 7.50629C10.3196 7.01789 10.3256 6.27628 9.90429 5.78125C9.66894 5.50469 9.34289 5.34543 8.98608 5.33281C8.63488 5.32082 8.28991 5.45922 8.04113 5.71392C7.71667 6.04594 7.59448 6.52448 7.71032 6.97004C7.61389 7.05961 7.48193 7.09758 7.35339 7.0721L7.18957 7.0395C7.12024 6.83326 7.00146 6.64902 6.84082 6.5C6.36267 6.05606 5.63562 6.04881 5.14965 6.48288C4.87988 6.72384 4.72461 7.05736 4.71264 7.4221C4.70068 7.78185 4.83642 8.13398 5.08496 8.3883C5.35485 8.66461 5.72778 8.80164 6.10815 8.76404C6.43493 8.73181 6.73242 8.57392 6.94543 8.32397L6.96191 8.32735C7.12817 8.36045 7.25659 8.49173 7.28894 8.66199L7.29223 8.67885C7.04797 8.89682 6.89367 9.20136 6.86218 9.53575C6.82556 9.92486 6.95935 10.3065 7.22937 10.5828C7.46789 10.8269 7.79431 10.9645 8.13086 10.9645C8.14502 10.9645 8.1593 10.9643 8.17346 10.9638C8.5299 10.9514 8.85583 10.7926 9.09131 10.5166C9.5155 10.0193 9.50842 9.27531 9.0747 8.7859ZM8.73828 10.201C8.58911 10.3759 8.38293 10.4766 8.15759 10.4843C7.93261 10.4922 7.72021 10.4066 7.56079 10.2435C7.39013 10.0689 7.30566 9.82767 7.32873 9.58172C7.35193 9.33589 7.48022 9.11555 7.6809 8.97702C7.75891 8.92318 7.79785 8.82687 7.7799 8.73231L7.74914 8.5703C7.68005 8.20731 7.40625 7.92713 7.05139 7.85643L6.89319 7.82495C6.87817 7.82195 6.86316 7.82058 6.84839 7.82058C6.77148 7.82058 6.69824 7.85942 6.65405 7.92625C6.5188 8.13161 6.30346 8.26289 6.06323 8.2865C5.82275 8.31036 5.58703 8.22367 5.4165 8.04917C5.25708 7.88603 5.17346 7.66906 5.18115 7.43834C5.18872 7.20788 5.28711 6.99678 5.458 6.84426C5.75976 6.57469 6.22888 6.57957 6.526 6.85525C6.65295 6.97317 6.73852 7.12544 6.77356 7.29594C6.79297 7.39038 6.8656 7.4637 6.95813 7.48206L7.26391 7.54289C7.55236 7.60035 7.84863 7.50779 8.05639 7.29507L8.14416 7.20525C8.21069 7.13718 8.23095 7.035 8.19568 6.94569C8.07385 6.63803 8.14343 6.28777 8.37268 6.05306C8.53222 5.8898 8.74499 5.80423 8.96997 5.81223C9.19543 5.82022 9.40173 5.92115 9.55078 6.0964C9.81237 6.40381 9.80847 6.88223 9.54187 7.18564C9.3153 7.44346 8.95251 7.52953 8.63916 7.39962C8.55188 7.36339 8.45202 7.38425 8.38549 7.45233L8.29773 7.54214C8.08996 7.75475 7.99939 8.05791 8.05554 8.35308L8.11499 8.66599C8.13293 8.76067 8.20459 8.83499 8.29675 8.85485C8.46338 8.8907 8.6123 8.97839 8.72741 9.10818C8.99694 9.41221 9.00171 9.89225 8.73828 10.201Z" fill="white"/>
<path d="M15.8667 11.1069L14.5081 10.4427C14.7308 9.71221 14.8438 8.95137 14.8438 8.1784C14.8438 6.40714 14.2351 4.68309 13.1299 3.32367C13.0471 3.22186 12.8993 3.208 12.7998 3.29269C12.7002 3.37738 12.6866 3.52865 12.7694 3.63045C13.8048 4.90394 14.375 6.51906 14.375 8.1784C14.375 8.87942 14.2758 9.56956 14.0803 10.2335L13.6509 10.0236C13.8202 9.42616 13.9062 8.80647 13.9062 8.1784C13.9062 4.51958 10.9973 1.54279 7.42188 1.54279C3.84644 1.54279 0.9375 4.51958 0.9375 8.1784C0.9375 11.8059 3.81665 14.8139 7.42188 14.8139C8.12366 14.8139 8.81067 14.6999 9.46875 14.475V14.9802C8.80811 15.1881 8.12048 15.2936 7.42188 15.2936C6.55688 15.2936 5.71301 15.1332 4.9137 14.8166C4.79297 14.7688 4.65723 14.8303 4.6106 14.9538C4.56384 15.0773 4.6239 15.2162 4.74451 15.2641C5.59802 15.602 6.49878 15.7732 7.42188 15.7732C8.16138 15.7732 8.88953 15.6623 9.5896 15.4438C9.59375 15.4462 9.59778 15.449 9.60205 15.4511L12.6333 16.933C12.6946 16.963 12.7716 16.9643 12.8354 16.933L13.8967 16.4142C14.0135 16.3571 14.063 16.2139 14.0072 16.0944C13.9514 15.9748 13.8114 15.9242 13.6947 15.9813L12.9688 16.3363V12.9564L15.5312 11.7037V15.0835L14.5969 15.5403C14.4801 15.5975 14.4307 15.7406 14.4865 15.8602C14.5422 15.9796 14.6823 16.0303 14.799 15.9731L15.8667 15.4512C15.9481 15.4114 16 15.3272 16 15.2347V11.3232C16 11.2334 15.9491 11.1472 15.8667 11.1069ZM12.7344 12.5395L10.2468 11.3232L12.7344 10.1071L15.2219 11.3232L12.7344 12.5395ZM9.9375 11.7037L12.5 12.9564V16.3363L9.9375 15.0835V11.7037ZM7.42188 14.3342C4.46912 14.3342 2.00635 12.1459 1.5011 9.27089H2.31738L2.81104 9.77604C2.85498 9.82101 2.91467 9.84637 2.97681 9.84637H3.62195V10.408C3.62195 10.5404 3.72693 10.6478 3.85632 10.6478C3.98572 10.6478 4.0907 10.5404 4.0907 10.408V9.60641C4.0907 9.474 3.98572 9.36658 3.85632 9.36658H3.07385L2.5802 8.86143C2.53625 8.81646 2.47668 8.79123 2.41455 8.79123H1.43604C1.42407 8.66794 1.41602 8.54352 1.41125 8.41824H3.81531C3.9447 8.41824 4.04968 8.31081 4.04968 8.1784C4.04968 8.046 3.9447 7.93857 3.81531 7.93857H1.41125C1.41772 7.76469 1.43115 7.59269 1.45166 7.42281H2.3855C2.44763 7.42281 2.5072 7.39745 2.55115 7.35248L2.9939 6.89942H3.76331C3.89282 6.89942 3.99768 6.792 3.99768 6.65959C3.99768 6.52718 3.89282 6.41976 3.76331 6.41976H2.89685C2.83472 6.41976 2.77502 6.44499 2.73108 6.48996L2.28833 6.94314H1.52795C2.08838 4.13872 4.51819 2.02245 7.42188 2.02245C10.3256 2.02245 12.7554 4.13872 13.3158 6.94302H12.2151L11.6537 6.36867C11.6097 6.32357 11.5502 6.29834 11.4879 6.29834H11.0791V6.02915C11.0791 5.89675 10.9742 5.78932 10.8447 5.78932C10.7152 5.78932 10.6104 5.89675 10.6104 6.02915V6.53817C10.6104 6.67071 10.7152 6.77801 10.8447 6.77801H11.3909L11.9523 7.35248C11.9962 7.39745 12.0558 7.42268 12.118 7.42268H13.3922C13.4126 7.59269 13.426 7.76469 13.4325 7.93857H11.6086C11.4791 7.93857 11.3743 8.04587 11.3743 8.1784C11.3743 8.31081 11.4791 8.41824 11.6086 8.41824H13.433C13.4272 8.57213 13.4156 8.7254 13.3988 8.87767H12.0831C12.021 8.87767 11.9613 8.9029 11.9174 8.94787L11.1768 9.70571H10.6877C10.5582 9.70571 10.4534 9.81314 10.4534 9.94555C10.4534 10.0781 10.5582 10.1854 10.6877 10.1854H11.2739C11.3361 10.1854 11.3956 10.1601 11.4396 10.1152L12.1802 9.35733H13.3267C13.2975 9.51073 13.2625 9.66299 13.2218 9.81376L12.8354 9.62477C12.7715 9.59354 12.6973 9.59354 12.6333 9.62477L9.60205 11.1067C9.52087 11.1465 9.46875 11.2315 9.46875 11.3232V13.9672C8.81372 14.2108 8.12585 14.3342 7.42188 14.3342Z" fill="white"/>
<path d="M4.04297 14.3985C1.83826 13.1417 0.46875 10.7582 0.46875 8.17838C0.46875 4.255 3.58789 1.0631 7.42188 1.0631C9.15515 1.0631 10.8154 1.71952 12.0969 2.91144C12.1926 3.0005 12.3409 2.99338 12.428 2.89532C12.5151 2.79727 12.5081 2.64562 12.4122 2.55656C11.0442 1.2842 9.27197 0.583435 7.42188 0.583435C5.43945 0.583435 3.57568 1.37351 2.17383 2.80801C0.771973 4.24238 0 6.14968 0 8.17838C0 10.9321 1.46179 13.4761 3.81482 14.8175C3.85095 14.8381 3.89014 14.848 3.92871 14.848C4.01099 14.848 4.09082 14.8035 4.13367 14.7247C4.19666 14.609 4.15613 14.463 4.04297 14.3985Z" fill="white"/>
</g>
<defs>
<clipPath id="clip0">
<rect y="0.583435" width="16" height="16.3726" fill="white"/>
</clipPath>
</defs>
</svg>
